HIERARCHY
ROOT Hips
{
	OFFSET 0.000000 0.000000 0.000000
	CHANNELS 6 Xposition Yposition Zposition Zrotation Yrotation Xrotation 
	JOINT LowerBack
	{
		OFFSET 0.000000 0.000000 0.000000
		CHANNELS 3 Zrotation Yrotation Xrotation
		JOINT Spine
		{
			OFFSET 0.028270 2.035590 -0.193380
			CHANNELS 3 Zrotation Yrotation Xrotation
			JOINT Spine1
			{
				OFFSET 0.056720 2.048850 -0.042750
				CHANNELS 3 Zrotation Yrotation Xrotation
				JOINT Neck
				{
					OFFSET 0.000000 0.000000 0.000000
					CHANNELS 3 Zrotation Yrotation Xrotation
					JOINT Neck1
					{
						OFFSET -0.054170 1.746240 0.172020
						CHANNELS 3 Zrotation Yrotation Xrotation
						JOINT Head
						{
							OFFSET 0.104070 1.761360 -0.123970
							CHANNELS 3 Zrotation Yrotation Xrotation
							End Site
							{
								OFFSET 0.000000 0.000000 0.000000
							}
						}
					}
				}
				JOINT LeftShoulder
				{
					OFFSET 0.000000 0.000000 0.000000
					CHANNELS 3 Zrotation Yrotation Xrotation
					JOINT LeftArm
					{
						OFFSET 3.362410 1.200890 -0.311210
						CHANNELS 3 Zrotation Yrotation Xrotation
						JOINT LeftForeArm
						{
							OFFSET 4.983000 -0.000000 -0.000000
							CHANNELS 3 Zrotation Yrotation Xrotation
							JOINT LeftHand
							{
								OFFSET 3.483560 -0.000000 -0.000000
								CHANNELS 3 Zrotation Yrotation Xrotation
								JOINT LeftFingerBase
								{
									OFFSET 0.000000 0.000000 0.000000
									CHANNELS 3 Zrotation Yrotation Xrotation
									JOINT LeftHandIndex1
									{
										OFFSET 0.715260 -0.000000 -0.000000
										CHANNELS 3 Zrotation Yrotation Xrotation
										End Site
										{
											OFFSET 0.000000 0.000000 0.000000
										}
									}
								}
								JOINT LThumb
								{
									OFFSET 0.000000 0.000000 0.000000
									CHANNELS 3 Zrotation Yrotation Xrotation
									End Site
									{
										OFFSET 0.000000 0.000000 0.000000
									}
								}
							}
						}
					}
				}
				JOINT RightShoulder
				{
					OFFSET 0.000000 0.000000 0.000000
					CHANNELS 3 Zrotation Yrotation Xrotation
					JOINT RightArm
					{
						OFFSET -3.136600 1.374050 -0.404650
						CHANNELS 3 Zrotation Yrotation Xrotation
						JOINT RightForeArm
						{
							OFFSET -5.241900 -0.000000 -0.000000
							CHANNELS 3 Zrotation Yrotation Xrotation
							JOINT RightHand
							{
								OFFSET -3.444170 -0.000000 -0.000000
								CHANNELS 3 Zrotation Yrotation Xrotation
								JOINT RightFingerBase
								{
									OFFSET 0.000000 0.000000 0.000000
									CHANNELS 3 Zrotation Yrotation Xrotation
									JOINT RightHandIndex1
									{
										OFFSET -0.622530 -0.000000 -0.000000
										CHANNELS 3 Zrotation Yrotation Xrotation
										End Site
										{
											OFFSET 0.000000 0.000000 0.000000
										}
									}
								}
								JOINT RThumb
								{
									OFFSET 0.000000 0.000000 0.000000
									CHANNELS 3 Zrotation Yrotation Xrotation
									End Site
									{
										OFFSET 0.000000 0.000000 0.000000
									}
								}
							}
						}
					}
				}
			}
		}
	}
}
}
MOTION
Frames: 12
Frame Time: 0.008333
2.078325 16.693980 2.784278 12.549725 -42.877716 18.278625 -12.422778 2.272066 1.815450 -2.143583 3.031049 -3.563108 0.109281 3.028905 -4.965297 -2.380244 -0.088016 -2.495615 0.497173 -0.044991 1.244874 0.000000 0.000000 0.000000 3.388006 -2.288901 -8.395708 -113.252083 -55.884286 54.234225 178.526589 -80.843255 179.696538 15.919075 -20.089009 -3.020803 -0.004368 1.178359 -0.000000 0.000000 0.000000 0.000000 0.000000 0.000000 0.000000 -12.727184 8.253168 7.059328 -27.063560 28.073214 -50.520623 0.644028 8.204387 -0.100169 -20.703654 12.420125 -2.493570 0.710395 -0.731240 0.000000 0.000000 0.000000 0.000000 0.000000 0.000000 0.000000 
2.085668 16.672348 2.804255 12.207186 -42.675314 18.727528 -12.274612 2.110205 1.685697 -2.033643 2.865987 -3.529850 0.451940 2.853190 -4.791181 -2.656163 -0.776972 -2.560929 0.835885 -0.021700 1.227750 0.000000 0.000000 0.000000 3.135427 -2.396124 -8.352704 -112.705218 -56.105262 53.745128 178.494853 -80.483985 179.697202 15.896169 -19.980460 -3.000265 -0.004122 1.176468 -0.000000 0.000000 0.000000 0.000000 0.000000 0.000000 0.000000 -14.798141 7.811780 6.950009 -24.163431 30.342801 -54.153312 0.416161 13.389753 -0.101725 -17.308485 13.007575 -2.181563 0.577454 -0.797559 0.000000 0.000000 0.000000 0.000000 0.000000 0.000000 0.000000 
2.095567 16.652535 2.828840 11.809226 -42.478000 19.226442 -12.036904 1.909812 1.492978 -1.934667 2.657795 -3.536689 0.677114 2.634331 -4.700448 -2.707904 -0.956988 -2.499175 1.055700 -0.008619 1.246687 0.000000 0.000000 0.000000 2.892351 -2.541866 -8.232361 -111.935548 -56.324327 53.084088 178.471797 -80.205540 179.696709 15.969502 -19.829015 -2.992881 -0.007811 1.177398 -0.000000 0.000000 0.000000 0.000000 0.000000 0.000000 0.000000 -16.095067 7.722137 6.802734 -21.864543 32.114678 -54.456116 0.371334 18.626530 -0.099826 -14.725932 12.149167 -1.736711 0.480684 -0.806854 0.000000 0.000000 0.000000 0.000000 0.000000 0.000000 0.000000 
2.107929 16.634311 2.855672 11.376559 -42.289733 19.748918 -11.781450 1.693227 1.278356 -1.852784 2.432506 -3.571404 0.813481 2.399694 -4.686261 -2.588751 -0.812427 -2.351971 1.187576 -0.002974 1.289953 0.000000 0.000000 0.000000 2.731615 -2.749806 -8.064183 -111.135674 -56.506644 52.340931 178.457309 -80.036000 179.695210 16.097634 -19.687210 -2.997377 -0.012777 1.180073 -0.000000 0.000000 0.000000 0.000000 0.000000 0.000000 0.000000 -16.781386 7.838505 6.605239 -19.976662 33.551084 -53.710662 0.343775 23.671995 -0.098212 -13.014694 10.919934 -1.384159 0.412124 -0.795440 0.000000 0.000000 0.000000 0.000000 0.000000 0.000000 0.000000 
2.122420 16.617833 2.883006 10.933536 -42.118565 20.271651 -11.541806 1.477237 1.077372 -1.786379 2.208121 -3.621918 0.890361 2.167335 -4.738156 -2.375966 -0.550173 -2.151773 1.269065 -0.001701 1.348258 0.000000 0.000000 0.000000 2.653199 -3.006316 -7.868931 -110.422728 -56.651701 51.596551 178.449319 -79.978374 179.692821 16.262720 -19.574216 -3.012968 -0.017633 1.183546 -0.000000 0.000000 0.000000 0.000000 0.000000 0.000000 0.000000 -17.105340 8.007245 6.325688 -18.180951 34.908828 -53.070240 0.260331 28.447024 -0.099179 -12.061485 9.837735 -1.159734 0.363649 -0.782177 0.000000 0.000000 0.000000 0.000000 0.000000 0.000000 0.000000 
2.138392 16.603421 2.909619 10.495331 -41.961884 20.782540 -11.332868 1.270977 0.909870 -1.734671 1.994064 -3.682538 0.920807 1.946497 -4.855457 -2.102383 -0.267980 -1.911296 1.319277 -0.003302 1.417799 0.000000 0.000000 0.000000 2.651944 -3.304305 -7.656042 -109.854769 -56.761142 50.900250 178.446563 -80.032649 179.689636 16.450550 -19.496572 -3.037666 -0.021599 1.187440 -0.000000 0.000000 0.000000 0.000000 0.000000 0.000000 0.000000 -17.195448 8.161314 5.943012 -16.244741 36.298273 -52.810174 0.111905 33.001773 -0.104855 -11.853525 9.047268 -1.051245 0.332203 -0.773650 0.000000 0.000000 0.000000 0.000000 0.000000 0.000000 0.000000 
2.155410 16.591347 2.935032 10.058738 -41.849780 21.288123 -11.157692 1.087682 0.774380 -1.696831 1.803729 -3.752499 0.914258 1.750086 -5.036523 -1.789655 -0.004517 -1.637628 1.350068 -0.006868 1.496554 0.000000 0.000000 0.000000 2.710249 -3.623630 -7.430198 -109.455661 -56.839391 50.285468 178.447999 -80.191393 179.685800 16.643807 -19.456396 -3.068571 -0.024010 1.191597 -0.000000 0.000000 0.000000 0.000000 0.000000 0.000000 0.000000 -17.138819 8.281299 5.447802 -13.996271 37.759178 -52.923703 -0.088747 37.413139 -0.116106 -12.327252 8.629970 -1.044189 0.314059 -0.773074 0.000000 0.000000 0.000000 0.000000 0.000000 0.000000 0.000000 
2.172359 16.581598 2.957884 9.670819 -41.783357 21.737914 -11.044049 0.928000 0.696674 -1.675048 1.638189 -3.826196 0.886318 1.579249 -5.283439 -1.468481 0.232594 -1.335574 1.376732 -0.011287 1.582826 0.000000 0.000000 0.000000 2.810997 -3.950339 -7.190968 -109.205354 -56.902446 49.748790 178.450325 -80.429232 179.681403 16.844227 -19.433538 -3.103099 -0.024808 1.195257 -0.000000 0.000000 0.000000 0.000000 0.000000 0.000000 0.000000 -17.045332 8.369994 4.825084 -11.222613 39.292435 -53.311423 -0.328192 41.789988 -0.134275 -13.488821 8.566374 -1.133665 0.307327 -0.780753 0.000000 0.000000 0.000000 0.000000 0.000000 0.000000 0.000000 
2.188886 16.574154 2.978680 9.309782 -41.774419 22.155187 -10.970005 0.793038 0.660081 -1.666977 1.497834 -3.904486 0.831275 1.433791 -5.584825 -1.127352 0.466604 -1.010864 1.393209 -0.016835 1.675043 0.000000 0.000000 0.000000 2.938863 -4.251779 -6.942940 -109.092031 -56.955617 49.310123 178.454257 -80.732878 179.676693 17.032246 -19.429635 -3.137947 -0.023795 1.198664 -0.000000 0.000000 0.000000 0.000000 0.000000 0.000000 0.000000 -16.880799 8.437919 4.105979 -7.983225 40.859361 -53.808743 -0.568713 46.142722 -0.157601 -15.110593 8.909812 -1.317254 0.306250 -0.796632 -0.000000 0.000000 0.000000 0.000000 0.000000 0.000000 0.000000 
2.204620 16.568804 2.997358 8.978108 -41.829816 22.542856 -10.927192 0.680316 0.655059 -1.670109 1.380205 -3.985966 0.753077 1.310822 -5.926831 -0.777946 0.716880 -0.672916 1.401685 -0.023171 1.770539 0.000000 0.000000 0.000000 3.075446 -4.500106 -6.690193 -109.079505 -57.011840 48.962772 178.458163 -81.072003 179.671876 17.203506 -19.430278 -3.170018 -0.021212 1.201532 -0.000000 0.000000 0.000000 0.000000 0.000000 0.000000 0.000000 -16.671669 8.497004 3.318456 -4.285533 42.419016 -54.289311 -0.782312 50.482270 -0.184328 -16.976986 9.608643 -1.589445 0.306440 -0.818865 -0.000000 0.000000 0.000000 0.000000 0.000000 0.000000 0.000000 
2.219308 16.565004 3.014083 8.681066 -41.939794 22.885113 -10.908472 0.583211 0.684350 -1.684331 1.277837 -4.065630 0.647526 1.202919 -6.289481 -0.410930 0.998417 -0.333546 1.396293 -0.030400 1.865810 0.000000 0.000000 0.000000 3.221393 -4.672722 -6.441371 -109.139194 -57.082236 48.703938 178.461287 -81.422411 179.667154 17.354944 -19.424859 -3.197211 -0.017491 1.203791 -0.000000 0.000000 0.000000 0.000000 0.000000 0.000000 0.000000 -16.380775 8.551260 2.512103 -0.277201 43.916874 -54.643911 -0.940237 54.765254 -0.211706 -18.823455 10.537881 -1.924430 0.304241 -0.844205 -0.000000 0.000000 0.000000 0.000000 0.000000 0.000000 0.000000 
2.233179 16.562316 3.029439 8.400715 -42.103903 23.205623 -10.895668 0.497930 0.725970 -1.707035 1.186898 -4.142305 0.510333 1.105789 -6.647804 -0.016575 1.307493 -0.004957 1.370012 -0.038691 1.957462 0.000000 0.000000 0.000000 3.377083 -4.752033 -6.206773 -109.249616 -57.173222 48.535493 178.463505 -81.761060 179.662756 17.477937 -19.412121 -3.217717 -0.013004 1.205709 -0.000000 0.000000 0.000000 0.000000 0.000000 0.000000 0.000000 -15.965575 8.594991 1.739902 3.841348 45.314869 -54.806620 -1.024464 58.918729 -0.236951 -20.415212 11.525559 -2.274504 0.297750 -0.869236 -0.000000 0.000000 0.000000 0.000000 0.000000 0.000000 0.000000 
